<svg xmlns="http://www.w3.org/2000/svg" width="180" height="180" viewBox="0 0 180 180" fill="none">
  <rect width="180" height="180" rx="40" fill="#303030"/>
  <g transform="translate(26,26) scale(4.57)">
    <path fill-rule="evenodd" clip-rule="evenodd" d="M15.9089 19.8507C15.9089 19.8507 16.4181 21.2101 16.8848 21.2952H10.9878C9.79981 21.2952 8.73946 20.6155 8.39977 19.3409L4.96347 9.14449C4.96347 9.14449 4.66663 7.9124 4.19995 7.70001H10.2243C11.4122 7.74255 12.2183 8.16732 12.685 9.73942L15.9089 19.8507Z" fill="#FFFFFF"/>
    <path opacity="0.2" fill-rule="evenodd" clip-rule="evenodd" d="M15.9089 19.8507C15.9089 19.8507 16.4181 21.2101 16.8848 21.2952H10.9878C9.79981 21.2952 8.73946 20.6155 8.39977 19.3409L4.96347 9.14449C4.96347 9.14449 4.66663 7.9124 4.19995 7.70001H10.2243C11.4122 7.74255 12.2183 8.16732 12.685 9.73942L15.9089 19.8507Z" fill="url(#veda-apple-gradient)"/>
    <path fill-rule="evenodd" clip-rule="evenodd" d="M12.1335 19.8509C12.1335 19.8509 11.6243 21.2103 11.1576 21.2954H17.0546C18.2426 21.2954 19.3029 20.6157 19.6426 19.3411L23.0367 9.14497C23.0367 9.14497 23.3335 7.91289 23.8002 7.7005H17.8181C16.6301 7.7005 15.8666 8.12527 15.3999 9.69737L12.1335 19.8509Z" fill="#FFFFFF"/>
  </g>
  <defs>
    <linearGradient id="veda-apple-gradient" x1="74.4" y1="56" x2="74.4" y2="129.9" gradientUnits="userSpaceOnUse">
      <stop stop-color="#FFFFFF" stop-opacity="0"/>
      <stop offset="0.33" stop-color="#FFFFFF" stop-opacity="0"/>
      <stop offset="0.76" stop-color="#0E1513"/>
      <stop offset="1" stop-color="#0E1513"/>
    </linearGradient>
  </defs>
</svg>
